
<svg width="32" height="32" viewBox="0 0 32 32" fill="none" xmlns="http://www.w3.org/2000/svg">
  <rect width="32" height="32" rx="8" fill="#1A237E" />
  <path d="M11.6 22.8C10.6 22.8 9.82 22.56 9.26 22.08C8.7 21.58 8.42 20.84 8.42 19.86V12.48H10.42V19.74C10.42 20.18 10.52 20.5 10.72 20.7C10.92 20.9 11.24 21 11.66 21H12.2V22.8H11.6ZM16.9794 22.8C15.9794 22.8 15.1994 22.56 14.6394 22.08C14.0794 21.58 13.7994 20.84 13.7994 19.86V15.38C13.7994 14.4 14.0694 13.66 14.6094 13.16C15.1694 12.64 15.9594 12.38 16.9794 12.38C17.9994 12.38 18.7894 12.64 19.3494 13.16C19.9094 13.66 20.1894 14.4 20.1894 15.38V19.86C20.1894 20.84 19.9094 21.58 19.3494 22.08C18.7894 22.56 17.9994 22.8 16.9794 22.8ZM16.9794 21C17.3994 21 17.7194 20.9 17.9394 20.7C18.1594 20.5 18.2694 20.18 18.2694 19.74V15.5C18.2694 15.06 18.1594 14.74 17.9394 14.54C17.7194 14.34 17.3994 14.24 16.9794 14.24C16.5594 14.24 16.2394 14.34 16.0194 14.54C15.7994 14.74 15.6894 15.06 15.6894 15.5V19.74C15.6894 20.18 15.7994 20.5 16.0194 20.7C16.2394 20.9 16.5594 21 16.9794 21Z" fill="white" />
</svg>
